<svg version="1.2" baseProfile="tiny-ps" xmlns="http://www.w3.org/2000/svg" viewBox="0 0 64 64" width="64" height="64">
	<title>3057653_media_payment_social_visa_icon-svg</title>
	<style>
		tspan { white-space:pre }
		.shp0 { fill: #135e26 } 
	</style>
	<g id="GUIDES_64">
	</g>
	<g id="Layer_3">
	</g>
	<g id="Layer_2">
		<path id="Layer" class="shp0" d="M27.1 24.1L24.5 39.9L28.6 39.9L31.2 24.1L27.1 24.1L27.1 24.1Z" />
		<path id="Layer" fill-rule="evenodd" class="shp0" d="M54 24.1L57.3 40L53.5 40C53.5 40 53.1 38.2 53 37.6C52.4 37.6 48.3 37.6 47.8 37.6C47.6 38 46.9 40 46.9 40L42.6 40L48.7 25.4C49.1 24.4 49.8 24.1 50.8 24.1L54 24.1ZM48.9 34.4L52.3 34.4C52.1 33.6 51.3 29.8 51.3 29.8L51 28.4C50.8 29 50.5 29.9 50.5 29.9C50.5 29.9 49.2 33.4 48.9 34.3L48.9 34.4Z" />
		<path id="Layer" class="shp0" d="M39.4 30.5C38 29.8 37.1 29.3 37.1 28.5C37.1 27.8 37.8 27.1 39.4 27.1C40.7 27.1 41.7 27.4 42.5 27.7L42.9 27.9L43.5 24.5C42.7 24.2 41.4 23.8 39.8 23.8L39.8 23.8C35.8 23.8 32.9 26 32.9 29C32.9 31.3 34.9 32.6 36.5 33.3C38.1 34.1 38.6 34.6 38.6 35.3C38.6 36.4 37.3 36.8 36.1 36.8C34.5 36.8 33.6 36.6 32.2 36L31.7 35.7L31.1 39.2C32.1 39.6 33.8 40 35.7 40C40 40 42.8 37.9 42.8 34.6C42.9 33 41.8 31.6 39.4 30.5Z" />
		<path id="Layer" class="shp0" d="M21.1 24.1L21.1 24.1L17.1 34.9L16.7 32.7L16.7 32.7L15.3 25.4C15.1 24.4 14.3 24.1 13.4 24.1L6.9 24.1C6.8 24.1 6.8 24.2 6.7 24.2C6.7 24.3 6.7 24.4 6.8 24.4C7.8 24.7 8.7 25 9.5 25.4C10.4 25.8 11 26.6 11.3 27.5L14.6 39.9L18.9 39.9L25.3 24.1L21.1 24.1L21.1 24.1Z" />
	</g>
</svg>