<svg version="1.2" baseProfile="tiny-ps" xmlns="http://www.w3.org/2000/svg" viewBox="0 0 24 24" width="24" height="24">
	<title>local_fire_department_black_24dp-svg</title>
	<style>
		tspan { white-space:pre }
		.shp0 { fill: none } 
		.shp1 { fill: #135e26 } 
	</style>
	<g id="Layer">
		<path id="Layer" class="shp0" d="M0 0L24 0L24 24L0 24L0 0Z" />
	</g>
	<g id="Layer">
		<path id="Layer" fill-rule="evenodd" class="shp1" d="M17.76 20.04C15.87 21.77 13.24 22.22 10.81 21.91C9.11 21.69 4.38 19.97 4 14.37C4 11.84 4.69 10.16 5.37 9.12C5.66 8.69 6.34 8.94 6.28 9.46C6.12 10.87 6.31 12.84 8.12 14.21C8.51 14.51 9.05 14.08 8.87 13.62C6.68 8 9.29 3.71 12.92 1.57C13.3 1.34 13.77 1.68 13.67 2.12C12.32 8.05 17.91 8.27 19.48 12.35C20.6 15.03 19.84 18.11 17.76 20.04ZM15.76 15.06C15.76 13.02 12.82 11.85 12.49 9.98C11.62 12.24 12.91 13.64 12.58 15.07C12.38 15.99 11.64 17.03 10.2 17.38C13.1 19.76 15.84 17.59 15.76 15.06Z" />
	</g>
</svg>