<svg version="1.2" baseProfile="tiny-ps" xmlns="http://www.w3.org/2000/svg" viewBox="0 0 24 24" width="14" height="14">
	<title>restaurant_black_24dp-svg</title>
	<style>
		tspan { white-space:pre }
		.shp0 { fill: none } 
		.shp1 { fill: #626763 } 
	</style>
	<path id="Layer" class="shp0" d="M0 0L24 0L24 24L0 24L0 0Z" />
	<path id="Layer" class="shp1" d="M16 6L16 14L19 14L19 22L21 22L21 2C18.24 2 16 4.24 16 6ZM11 9L9 9L9 2L7 2L7 9L5 9L5 2L3 2L3 9C3 11.21 4.79 13 7 13L7 22L9 22L9 13C11.21 13 13 11.21 13 9L13 2L11 2L11 9Z" />
</svg>